<svg id="Layer_1" xmlns="http://www.w3.org/2000/svg" viewBox="0 0 149.9 44"><style>.st0{fill:#37A683;} .st1{fill:#FCBB2E;} .st2{fill:#BD8D2C;} .st3{fill:#A66227;} .st4{fill:#56230E;} .st5{fill:#3F1C0D;} .st6{fill:#B82231;} .st7{fill:#8A1A25;} .st8{fill:#F27C21;} .st9{fill:#B65E27;}</style><g id="XMLID_51_"><g id="XMLID_131_"><path id="XMLID_132_" class="st0" d="M34.2 27.4c.1 1.9.7 4.2-.6 4.3-.5 0-1.5-2.4-1.7-4.9-.2-2.4-.3-3.5-.2-5 0-1.4 2.1.6 2.1.6s3.8-2.2 4.2-1c.2.9-4.1 1.1-3.8 6zM83.1 24c0 .5-1.3 1.2-3.1 2.2.1 4.1.1 7.9-.4 8.4-.9.8-1.6-.1-1.8-1-.1-.4-.3-2.9-.4-6-1.2.6-2.6 1.3-4 2.2v.1c1.2 7.5-.3 12.7-5.4 12.8-4.5.1-5.4-3.6-3.2-7.3 1.3-2.2 3.6-4.3 6.5-6.1-.2-1.1-.3-2-.4-2.6-.5 1-2.2 4.3-3.8 4.1-1-.1-1.5-.6-1.8-1.3-.6.6-1.5 1.1-2.6 1.4-2.8.7-3.3-1.9-3.3-1.9s-1.3 2.1-3.5 1.9c-.5 0-1-.3-1.4-.6-.7.8-1.7 1.5-3.1 1.4-2.3-.1-3.6-1.4-4.4-3.2-1.5 1.2-4.3 2.9-6.5 2.5-1.9-.3-2.7-2.3-2.8-4.2-1.1-.2-1.9-.6-1.7-1 .2-.4.7-.2 1.7-.1.1-.8.3-1.6.6-2.1 2.3-4 8.5-2.5 5.9 1.5-1.1 1.8-3.9 1.9-3.9 1.9s0 2.1 2.3 2.2c.9 0 2.6-.8 4-1.8-.8-2.9-.5-6.5 0-8.7.6-2.7 2-5.7 4.8-5.4 0 0 2.8.2 2.3 3.5-.4 5.6-4.5 9.8-4.5 9.8s-.2.4.6 1.7c1.1 1.8 2.7 1.5 3.8.7-.7-1.4-.8-3.5.3-5.5 1.9-3.3 6.8-2 6.7-.9-.1.6-3.3-.4-4.3 1.3-1 1.7-.6 4.6.3 4.7.5 0 2.5-1.9 3.4-4.4.6-1.5 1.6-.9 1.2 1.3-.5 2.2.2 5.5 3.8 3.1-.2-.8-.2-1.7-.2-2.6 0-2.9.7-4.6 1.3-4.7 1.1 0 .2 6.6 1.5 6.9.8.2 2.2-2.4 2.8-5.1.1-.7 1-2 1.6-.9.3.5.7 3 1.1 5.8 1.6-.9 3-1.7 4.1-2.3-.2-4.3-.1-9.1.5-10.4 1.4-3.2 5-.7 5-.1 0 1-2-.5-2.4.4-.4.8-.4 4.7-.3 8.7 2.6-1.1 3.2-.9 3.1-.3zm-42.8 1.4c.4 0 1.4-.3 2.1-1.1 1.2-1.5-1-1.9-1.8-.5-.6 1.1-.4 1.6-.4 1.6h.1c0-.1 0-.1 0 0zm8.3-.1c1.9-2.3 2.7-4.5 3.2-7.2.2-1.4.4-3.1-.6-3.2-1.9-.3-3 6.5-2.6 10.4zm23.1 9.9c0-1.5-.1-3-.3-4.4-5.2 3.5-5.9 6.6-5 8.1 1 1.9 5.3.7 5.3-3.7zm48.1-11.8c-1-.2-2.1.5 1 3s-.3 6.7-4.9 4c-.6-.4-1.1-.7-1.5-1-.1 1.6-.3 2.7-1.1 2.7-1 0-1.4-2.1-1.4-3.6-.4.9-1.7 2.9-4.3 2.7-1.8-.2-2.8-2.9-2.5-5.3-.2 0-1 .2-2.1.4-.3 2.4-2.1 4.8-4.4 4.8-3 0-4.5-2.4-4.6-4.9-.4.2-1 .3-1.5.4-.3 2.4-2.2 4.5-4.5 4.5-4.8 0-5.8-6.1-3.3-8.7.5-.6.9-.3 1.1 0 .3.4.2.9.1 1.5-.3 2.2-.1 5.7 1.8 5.7.9 0 1.7-1.5 2-3.3-3.9-1.5-3.7-4.7-1.9-4.9 1.5-.2 4.7 1.7 4.7 3.9 0 0 .8 0 1.6-.4.4-1.8 1.5-3.4 3.5-3.5 3.8-.2 5.4 1.7 5.5 4 .7 0 1.4-.2 2.2-.4.2-.7.5-1.3 1-1.8 2.2-2.2 5.5.3 5.5.3s0-6 .3-7.9c.2-1.4 1.9-1.6 2 1.8.1 3.1.3 6 .3 8.7v2.4s.1 0 .1.1c1.7 1.3 4.5 1.5 5.1.7 1-1.4-4.6-3.1-2.8-6.5 1.5-2.9 5.4-.3 5.8 1 .5 1-1.7-.2-2.8-.4zm-31.7-.7c-.8.1-.1 1.1 1.5 1.8.3-1.5-1-1.9-1.5-1.8zm12.6 2.4c-.1-.8-.4-1.4-.7-1.7-.4-.4-1-.7-1.5-.8-1.1.3-.1 1.9 2.2 2.5zm.1 1.3c-1.2 0-2.4-.2-3.3-.8-.3-.2-.6-.4-.8-.7 0 2.2.6 5 1.8 5 1.6.1 2.3-1.7 2.3-3.5zm11-2.1c-.1-.1-3.2-1-3.9.6-.7 1.7 0 4.2.4 4.3.5.1 1.1-.1 2-1.2 1-1.1 1.6-3.6 1.5-3.7z"/></g></g><g id="XMLID_48_"><path id="XMLID_50_" class="st1" d="M119 12c.2.6-.2 1.3-.2 1.9 0 .5.5 1.3 1.3 1 .8-.3.3-1.2.2-1.7-.5-2.6 1 1 1.8.6.2-.5-.4-.7-.2-1.2.5.1 1.4 1.1 1.7 0 .3-1.2-1.3-.5-1.7-1-.5-.6 1-.8 1.1-1.4.1-.8-.8-.7-1.4-.5-.7.3-1.1 1.1-1.9.8-.8-.3-.6-1 0-1.5.7-.6 3.4-1.7 2.1-2.8-.9-.7-2.6.7-3.2 1.3-.4.4-.6 1.2-1.1 1.5-.9.5-.9-.2-.6-.8.2-.4 1-1.2.7-1.7-.5-.8-1.4.2-1.7.6-.3.4-.8 1.2-1.5 1.1-1.1-.2 0-1-.2-1.5-.3-.6-3 .5-3.8.2h-.2l-1.1-.7-1.2.3 2.6 1.2c.2.2.4.3.4.4.2.3 0 2 1 1.8.7-.2.4-1.2 1.4-.6.7.5.1 1.1.2 1.8 0 .4.4 1.4 1.1 1.2.7-.2 0-1.1.2-1.6.4-.9 1.1-.4 1.4.2.3.5.1 1.3.2 1.9 0 .5.8 3.6 2.1 2.5.9-.8-1.6-3.1-.5-4 .2-.4.9.2 1 .7z"/><path id="XMLID_49_" class="st2" d="M110.2 6.9h-.2l-1.1-.7-1.2.3 2.2 1 12.1 4.6L110.6 7c-.2 0-.3 0-.4-.1z"/></g><g id="XMLID_37_"><path id="XMLID_47_" class="st3" d="M125.7 33.7c2 .3 1.1 4.4 9.1.6l-3.1-6.8c-8.7 1.6-4 5.4-6 6.2z"/><path id="XMLID_46_" class="st4" d="M135.1 30.2l1.8-.6-.6-.9-1.6.7s-.6-4-4.7-2.5l4.2 8.5s3.8-.7.9-5.2z"/><g id="XMLID_38_"><path id="XMLID_39_" class="st5" d="M135.6 33.8l.1-.2-.7-.4.2-.6.2.1.1-.2-.2-.2.1-.3-.2-.1-.1.2-.6-.4.3-.9-.2-.1-.2.8-.6-.4.2-.8.2.1.1-.2-.3-.2.2-.5-.2-.1-.1.5-.7-.4.2-.7.2.1.1-.2-.2-.1.1-.4-.2-.1-.1.4-.5-.3.3-1-.2-.1-.3 1-.7-.4.2-.8-.2-.1-.2.8-.6-.3-.1.2.6.4-.2.7-.4-.2-.1.2.4.3-.1.2.2.1V29l.7.4-.2.7.2.1.2-.7.5.3-.2.8-.3-.2-.1.2.4.3-.1.3.2.1.1-.2.7.4-.2.6-.4-.3-.1.2.5.3-.1.2.2.1.1-.2.6.4-.3 1 .2.1.3-.9.6.4-.5 1.6.2.1.4-1.5.6.2zm-4-5.1l.2-.7.7.4-.2.7-.7-.4zm.8.6l.2-.7.5.3-.2.7-.5-.3zm.4 1.5l.2-.8.7.4-.2.8-.7-.4zm.6 1.4l.2-.6.6.4-.2.6-.6-.4zm.9.5l.2-.6.6.4-.2.6-.6-.4z"/></g></g><g id="XMLID_32_"><path id="XMLID_36_" class="st6" d="M34.7 14l2.1-1.9s-2.4-.3-2.6-2.2c0 0-1.5 3-2.9 1l2.6-3.5S31.4 8.3 32 4c0 0-1.9 3.5-3.8 1.4 0 0-.8 8.5-2.5.5 0 0-1.1 2.2-3.3-1 0 0 1 2.4-.8 2.5 0 0 2.9 4.1-1.6 2.6 0 0 .4 2.6 4.5 3.1 0 0-.3 1.6-1.8 1.8 0 0 1.9 1.2 3.7.5l-.8 1.6.8.2.7-2c.3.5 1.2 1.9 2.2 2.3V16s2.1 1 3.6.8l-.5-1.3 3.5-.2-1.2-1.3z"/><path id="XMLID_35_" class="st7" d="M31 6.3c-1.8 3.6-3.2 7.8-6.2 10.9l1.6.5c2.4-3.3 3-7.6 4.6-11.4z"/><path id="XMLID_34_" class="st7" d="M27.9 14.8l5.2-2.2-4.8 1.2z"/><path id="XMLID_33_" class="st7" d="M25 9.4l2.8 4.9.2-1z"/></g><g id="XMLID_24_"><g id="XMLID_30_"><path id="XMLID_31_" class="st8" d="M134.3 22c1.3.4 2 1.7 2.5 2.9.3.9.9 1.7 1.6 2.2.2-.4.4-.8.6-1.3-.9-.6-1.5-1.4-2.1-2.2-.4-.6-.7-1.4-.3-2.1.5-1.1 1.6-1.9 2.2-2.9.6-.9 1-1.9.7-3-.1-.6-.8-1-1.4-.8-.7.2-1.1 1-1.7 1.3-.3.2-.6-.2-.5-.5.3-1.1 1-2.2.9-3.4 0-.6-.1-1.3-.6-1.7-.5-.3-1 0-1.3.4-.4.5-.5 1.2-1.1 1.5-.4.1-.7-.4-.7-.8 0-.9.3-1.9.2-2.8-.1-.7-.7-1.5-1.5-1.5-.9 0-1.8.6-2 1.5-.3 1.1 0 2.2.4 3.1.2.4.4.9.5 1.4.1.3-.2.5-.5.5-.5-.1-.9-.5-1.4-.5-.5 0-.9.6-.9 1.1.1.8.6 1.4 1.2 1.9.7.6 1.8.8 2.5 1.5.3.2.1.7-.2.7-.5-.1-1-.4-1.5-.5-.3 0-.7.1-.9.4-.2.5 0 1 .1 1.4.2.6.7 1 1.2 1.2 1.4.7 2.7.7 4 1z"/></g><path id="XMLID_29_" class="st9" d="M139.1 25.8c-.9-.6-1.5-1.4-2.1-2.2-1.4-2.5-4-8.8-5.7-13.8 0 0 1.5 7.2 3.9 12.7.7.6 1.2 1.5 1.6 2.3.3.9.9 1.7 1.6 2.2.3-.3.5-.8.7-1.2z"/><path id="XMLID_28_" class="st9" d="M134.9 20.1l-3.8-.7 3.5 1.4z"/><path id="XMLID_27_" class="st9" d="M137.6 17.6l-3 2.4.6.5z"/><path id="XMLID_26_" class="st9" d="M135.9 12.9l-3 2.4.6.4z"/><path id="XMLID_25_" class="st9" d="M133.2 15.6l-3.8-.7 3.5 1.4z"/></g><g id="XMLID_16_"><g id="XMLID_22_"><path id="XMLID_23_" class="st8" d="M11.7 27c-.4 1.4-1.8 2.3-3.1 2.9-.9.4-1.8 1-2.4 1.8.5.2.9.5 1.4.7.6-1 1.5-1.7 2.4-2.4.7-.5 1.6-.8 2.3-.4 1.2.6 2.1 1.7 3.3 2.4 1 .6 2.2 1.1 3.3.7.6-.2 1.1-.9.8-1.5-.3-.8-1.1-1.1-1.4-1.9-.2-.3.2-.6.5-.5 1.3.3 2.5 1 3.8.9.7 0 1.4-.2 1.8-.7.3-.5-.1-1.1-.5-1.4-.5-.4-1.3-.6-1.7-1.2-.1-.5.4-.8.8-.8 1 0 2.1.2 3.1.1.8-.2 1.6-.8 1.7-1.7 0-1-.8-1.9-1.7-2.2-1.2-.3-2.4.1-3.5.6-.5.2-1 .5-1.5.6-.3.1-.6-.3-.6-.6.1-.6.6-1 .5-1.6-.1-.6-.7-1-1.3-.9-.9.1-1.6.7-2.1 1.4-.7.8-.8 2-1.5 2.8-.2.3-.8.1-.8-.2.1-.6.4-1.1.5-1.7 0-.4-.1-.8-.5-.9-.5-.2-1.1 0-1.6.2-.6.2-1.1.8-1.3 1.4-.4 1.2-.4 2.7-.7 4.1z"/></g><path id="XMLID_21_" class="st9" d="M7.6 32.4c.6-1 1.5-1.7 2.4-2.4 2.7-1.6 9.6-4.7 15.1-6.7 0 0-7.9 1.8-13.9 4.8-.6.8-1.6 1.4-2.5 1.8-.9.4-1.8 1-2.4 1.8.4.3.9.5 1.3.7z"/><path id="XMLID_20_" class="st9" d="M13.8 27.6l.7-4.3-1.4 3.9z"/><path id="XMLID_19_" class="st9" d="M16.7 30.5l-2.8-3.3-.5.7z"/><path id="XMLID_18_" class="st9" d="M21.9 28.4l-2.8-3.2-.5.7z"/><path id="XMLID_17_" class="st9" d="M18.7 25.6l.7-4.3-1.5 3.9z"/></g><g id="XMLID_13_"><path id="XMLID_15_" class="st1" d="M24.5 36.3c-.3-.4-.1-1.1-.3-1.5-.1-.4-.7-.9-1.2-.5s0 1 .2 1.4c1 1.9-1-.5-1.5 0 0 .5.5.5.4.9-.4 0-1.3-.5-1.3.4 0 1 1.1.1 1.5.4.5.4-.6.9-.5 1.4.1.7.8.4 1.2 0 .5-.4.6-1.1 1.3-1.1.7 0 .7.6.4 1.1-.4.6-2.2 2.1-1 2.6.8.3 1.8-1.1 2.1-1.8.2-.4.2-1.1.5-1.4.6-.6.7-.1.6.4-.1.4-.5 1.1-.1 1.5.6.5 1-.5 1.2-.9.2-.4.3-1.1.9-1.2.9-.1.2.8.5 1.1.4.4 2.2-1.1 2.9-1 .1 0 .1-.1.2-.1l1 .3.9-.6-2.3-.3c-.2-.1-.4-.1-.4-.2-.2-.2-.5-1.6-1.2-1.1-.5.3 0 1-.9.7-.7-.2-.4-.8-.6-1.4-.1-.3-.7-1-1.1-.6-.5.3.3.8.2 1.2-.1.8-.8.6-1.1.2-.3-.4-.4-1-.6-1.4-.1-.4-1.4-2.6-2.2-1.4-.5.9 1.9 2 1.3 3-.1.6-.8.2-1-.1z"/><path id="XMLID_14_" class="st2" d="M32.5 38.1c.1 0 .1-.1.2-.1l1 .3.9-.6-1.9-.3-10.4-.7 10 1.4c.1.1.2 0 .2 0z"/></g><g id="XMLID_2_"><path id="XMLID_12_" class="st3" d="M17.3 17.5c-.5-1.5 2.8-2.3-2.7-6.7l-3.8 4.6c4 5.7 5.2.9 6.5 2.1z"/><path id="XMLID_11_" class="st4" d="M11.5 11.9l-1-1.1-.5.7 1.1.9s-2.6 1.8-.2 4.2l4.7-5.9c0 .1-1.9-2.4-4.1 1.2z"/><g id="XMLID_3_"><path id="XMLID_4_" class="st5" d="M13.9 10.3h-.2v.7l-.5.1v-.2H13v.2h-.2v.2h.2l-.1.5-.7.1v.2l.7-.1-.1.6-.7.1v-.2h-.2v.2l-.4.1v.2l.4-.1-.1.6-.6.1v-.2H11v.2l-.3.1v.2h.3v.5l-.8.1v.2l.8-.1-.1.6-.7.1v.2l.6-.1-.1.5h.2l.1-.6.6-.1v.3h.2v-.4h.2v-.2h-.1l.1-.6.6-.1V14l-.5.1.1-.5.7-.1v.3h.2v-.4h.2v-.2h-.2l.1-.6.5-.1v.4h.2l.1-.4h.2v-.2h-.1l.1-.6.8-.1v-.2l-.7.1.1-.5 1.3-.2v-.2l-1.2.2-.6-.5zM11.6 15l-.6.1.1-.6.6-.1-.1.6zm.1-.8l-.6.1.1-.5.6-.1-.1.5zm1-.8l-.7.1.1-.6.7-.1-.1.6zm.8-1l-.5.1V12l.5-.1v.5zm.1-.7l-.5.1.1-.5.5-.1-.1.5z"/></g></g></svg>